STARTFONT 2.1
FONT -Adobe-ITC Lubalin Graph-Demi-R-Normal--14-140-75-75-P-85-ISO8859-1
SIZE 14 75 75
FONTBOUNDINGBOX 19 18 -1 -3

STARTPROPERTIES 30
FOUNDRY "Adobe"
FAMILY_NAME "ITC Lubalin Graph"
WEIGHT_NAME "Demi"
SLANT "R"
SETWIDTH_NAME "Normal"
ADD_STYLE_NAME ""
PIXEL_SIZE 14
POINT_SIZE 140
RESOLUTION_X 75
RESOLUTION_Y 75
SPACING "P"
AVERAGE_WIDTH 85
CHARSET_REGISTRY "ISO8859"
CHARSET_ENCODING "1"
CAP_HEIGHT 11
X_HEIGHT 8
FACE_NAME "ITC Lubalin Graph Demi"
COPYRIGHT "Copyright (c) 1984, 1987 Adobe Systems Incorporated. All Rights Reserved. Copyright (c) 1988, 1991 Digital Equipment Corporation. All Rights Reserved."
NOTICE "ITC Lubalin Graph is a registered trademark of International Typeface Corporation."
_DEC_DEVICE_FONTNAMES "PS=LubalinGraph-Demi"
_DEC_PRODUCTINFO "DECwindows Fonts V2.2, 07-Nov-1991"
RELATIVE_SETWIDTH 50
RELATIVE_WEIGHT 60
CHARSET_COLLECTIONS "ASCII ISO8859-1 ADOBE-STANDARD"
FULL_NAME "ITC Lublin Graph Demi"
WEIGHT 10
QUAD_WIDTH 9
DEFAULT_CHAR 32
FONT_DESCENT 3
FONT_ASCENT 13
ENDPROPERTIES

CHARS 191

STARTCHAR space
ENCODING 32
SWIDTH 300 0
DWIDTH 3 0
BBX 1 1 0 0
BITMAP
00
ENDCHAR

STARTCHAR exclam
ENCODING 33
SWIDTH 200 0
DWIDTH 4 0
BBX 2 11 1 0
BITMAP
C0
C0
C0
C0
C0
C0
C0
C0
00
C0
C0
ENDCHAR

STARTCHAR quotedbl
ENCODING 34
SWIDTH 400 0
DWIDTH 6 0
BBX 5 3 0 8
BITMAP
D8
D8
D8
ENDCHAR

STARTCHAR numbersign
ENCODING 35
SWIDTH 660 0
DWIDTH 10 0
BBX 9 10 0 0
BITMAP
1B00
1B00
1B00
7F80
3600
3600
FF00
6C00
6C00
6C00
ENDCHAR

STARTCHAR dollar
ENCODING 36
SWIDTH 580 0
DWIDTH 8 0
BBX 8 14 -1 -2
BITMAP
0C
0D
3F
63
61
70
3C
0E
07
C3
E7
BE
18
18
ENDCHAR

STARTCHAR percent
ENCODING 37
SWIDTH 860 0
DWIDTH 12 0
BBX 12 11 0 0
BITMAP
7180
D980
DB00
DB00
7600
0600
0CE0
0DB0
19B0
19B0
30E0
ENDCHAR

STARTCHAR ampersand
ENCODING 38
SWIDTH 720 0
DWIDTH 12 0
BBX 10 11 1 0
BITMAP
3C00
7E00
6600
6600
3CC0
7D80
EF00
C700
C780
FDC0
7880
ENDCHAR

STARTCHAR quoteright
ENCODING 39
SWIDTH 200 0
DWIDTH 3 0
BBX 2 4 0 7
BITMAP
C0
C0
40
80
ENDCHAR

STARTCHAR parenleft
ENCODING 40
SWIDTH 360 0
DWIDTH 6 0
BBX 5 13 0 -2
BITMAP
18
38
70
60
E0
C0
C0
C0
E0
60
70
38
18
ENDCHAR

STARTCHAR parenright
ENCODING 41
SWIDTH 360 0
DWIDTH 6 0
BBX 5 13 0 -2
BITMAP
C0
E0
70
30
38
18
18
18
38
30
70
E0
C0
ENDCHAR

STARTCHAR asterisk
ENCODING 42
SWIDTH 360 0
DWIDTH 5 0
BBX 5 5 0 6
BITMAP
20
F8
70
F8
20
ENDCHAR

STARTCHAR plus
ENCODING 43
SWIDTH 660 0
DWIDTH 10 0
BBX 8 8 1 0
BITMAP
18
18
18
FF
FF
18
18
18
ENDCHAR

STARTCHAR comma
ENCODING 44
SWIDTH 300 0
DWIDTH 4 0
BBX 2 4 1 -2
BITMAP
C0
C0
40
80
ENDCHAR

STARTCHAR minus
ENCODING 45
SWIDTH 660 0
DWIDTH 10 0
BBX 8 2 1 3
BITMAP
FF
FF
ENDCHAR

STARTCHAR period
ENCODING 46
SWIDTH 300 0
DWIDTH 4 0
BBX 2 2 1 0
BITMAP
C0
C0
ENDCHAR

STARTCHAR slash
ENCODING 47
SWIDTH 580 0
DWIDTH 8 0
BBX 7 12 0 -1
BITMAP
06
06
0C
0C
18
18
30
30
60
60
C0
C0
ENDCHAR

STARTCHAR zero
ENCODING 48
SWIDTH 580 0
DWIDTH 8 0
BBX 7 11 0 0
BITMAP
38
7C
EE
C6
C6
C6
C6
C6
EE
7C
38
ENDCHAR

STARTCHAR one
ENCODING 49
SWIDTH 580 0
DWIDTH 8 0
BBX 6 11 1 0
BITMAP
F0
F0
30
30
30
30
30
30
30
FC
FC
ENDCHAR

STARTCHAR two
ENCODING 50
SWIDTH 580 0
DWIDTH 8 0
BBX 7 11 0 0
BITMAP
7C
FE
C6
C6
0E
1C
38
70
E6
FE
FE
ENDCHAR

STARTCHAR three
ENCODING 51
SWIDTH 580 0
DWIDTH 8 0
BBX 7 11 0 0
BITMAP
7C
FE
C6
06
3C
3C
06
C6
C6
FE
7C
ENDCHAR

STARTCHAR four
ENCODING 52
SWIDTH 580 0
DWIDTH 8 0
BBX 7 11 0 0
BITMAP
1C
3C
3C
6C
6C
CC
FE
FE
0C
1E
1E
ENDCHAR

STARTCHAR five
ENCODING 53
SWIDTH 580 0
DWIDTH 8 0
BBX 7 11 0 0
BITMAP
7E
7E
60
FC
FE
C6
06
C6
C6
FE
7C
ENDCHAR

STARTCHAR six
ENCODING 54
SWIDTH 580 0
DWIDTH 8 0
BBX 7 11 0 0
BITMAP
0E
1C
38
70
7C
FE
C6
C6
C6
FE
7C
ENDCHAR

STARTCHAR seven
ENCODING 55
SWIDTH 580 0
DWIDTH 8 0
BBX 7 11 0 0
BITMAP
FE
FE
CC
1C
18
38
30
30
70
60
60
ENDCHAR

STARTCHAR eight
ENCODING 56
SWIDTH 580 0
DWIDTH 8 0
BBX 7 11 0 0
BITMAP
7C
FE
C6
C6
7C
7C
C6
C6
C6
FE
7C
ENDCHAR

STARTCHAR nine
ENCODING 57
SWIDTH 580 0
DWIDTH 8 0
BBX 7 11 0 0
BITMAP
7C
FE
C6
C6
C6
FE
7E
0C
1C
38
70
ENDCHAR

STARTCHAR colon
ENCODING 58
SWIDTH 300 0
DWIDTH 4 0
BBX 2 7 1 0
BITMAP
C0
C0
00
00
00
C0
C0
ENDCHAR

STARTCHAR semicolon
ENCODING 59
SWIDTH 300 0
DWIDTH 4 0
BBX 2 9 1 -2
BITMAP
C0
C0
00
00
00
C0
C0
40
80
ENDCHAR

STARTCHAR less
ENCODING 60
SWIDTH 660 0
DWIDTH 10 0
BBX 8 8 1 0
BITMAP
03
0F
3C
E0
E0
3C
0F
03
ENDCHAR

STARTCHAR equal
ENCODING 61
SWIDTH 660 0
DWIDTH 10 0
BBX 8 5 1 1
BITMAP
FF
FF
00
FF
FF
ENDCHAR

STARTCHAR greater
ENCODING 62
SWIDTH 660 0
DWIDTH 10 0
BBX 8 8 1 0
BITMAP
C0
F0
3C
07
07
3C
F0
C0
ENDCHAR

STARTCHAR question
ENCODING 63
SWIDTH 540 0
DWIDTH 9 0
BBX 7 11 1 0
BITMAP
7C
FE
C6
06
0E
3C
30
30
00
30
30
ENDCHAR

STARTCHAR at
ENCODING 64
SWIDTH 880 0
DWIDTH 13 0
BBX 11 11 1 0
BITMAP
1F00
60C0
4040
8D20
9320
9120
9120
8EC0
4000
60C0
1F00
ENDCHAR

STARTCHAR A
ENCODING 65
SWIDTH 780 0
DWIDTH 11 0
BBX 10 11 0 0
BITMAP
1C00
1C00
0E00
1E00
1A00
3300
3F00
7F80
6180
F3C0
F3C0
ENDCHAR

STARTCHAR B
ENCODING 66
SWIDTH 600 0
DWIDTH 9 0
BBX 9 11 0 0
BITMAP
FE00
FF00
6300
6300
7E00
7F00
6380
6180
6380
FF00
FE00
ENDCHAR

STARTCHAR C
ENCODING 67
SWIDTH 760 0
DWIDTH 10 0
BBX 9 11 0 0
BITMAP
1D80
7F80
E180
C000
C000
C000
C000
C000
E180
7F80
1E00
ENDCHAR

STARTCHAR D
ENCODING 68
SWIDTH 740 0
DWIDTH 11 0
BBX 10 11 0 0
BITMAP
FE00
FF80
6180
60C0
60C0
60C0
60C0
60C0
6180
FF80
FE00
ENDCHAR

STARTCHAR E
ENCODING 69
SWIDTH 580 0
DWIDTH 9 0
BBX 8 11 0 0
BITMAP
FF
FF
63
60
7C
7C
60
60
63
FF
FF
ENDCHAR

STARTCHAR F
ENCODING 70
SWIDTH 580 0
DWIDTH 9 0
BBX 8 11 0 0
BITMAP
FF
FF
63
60
7C
7C
60
60
60
F0
F0
ENDCHAR

STARTCHAR G
ENCODING 71
SWIDTH 780 0
DWIDTH 11 0
BBX 10 11 0 0
BITMAP
1EC0
7FC0
E1C0
C000
C000
C7C0
C7C0
C0C0
E1C0
7FC0
1EC0
ENDCHAR

STARTCHAR H
ENCODING 72
SWIDTH 740 0
DWIDTH 11 0
BBX 10 11 0 0
BITMAP
F3C0
F3C0
6180
6180
7F80
7F80
6180
6180
6180
F3C0
F3C0
ENDCHAR

STARTCHAR I
ENCODING 73
SWIDTH 340 0
DWIDTH 5 0
BBX 4 11 0 0
BITMAP
F0
F0
60
60
60
60
60
60
60
F0
F0
ENDCHAR

STARTCHAR J
ENCODING 74
SWIDTH 540 0
DWIDTH 8 0
BBX 7 11 0 0
BITMAP
1E
1E
0C
0C
0C
0C
0C
0C
CC
FC
78
ENDCHAR

STARTCHAR K
ENCODING 75
SWIDTH 720 0
DWIDTH 10 0
BBX 9 11 0 0
BITMAP
F380
F380
6700
6E00
7C00
7800
7C00
6E00
6700
F380
F380
ENDCHAR

STARTCHAR L
ENCODING 76
SWIDTH 560 0
DWIDTH 8 0
BBX 7 11 0 0
BITMAP
F0
F0
60
60
60
60
60
60
66
FE
FE
ENDCHAR

STARTCHAR M
ENCODING 77
SWIDTH 960 0
DWIDTH 13 0
BBX 12 11 0 0
BITMAP
E070
F0F0
70E0
79E0
6F60
6F60
6660
6660
6660
F6F0
F6F0
ENDCHAR

STARTCHAR N
ENCODING 78
SWIDTH 800 0
DWIDTH 11 0
BBX 10 11 0 0
BITMAP
F3C0
F3C0
7980
7980
6D80
6D80
6780
6780
6380
F380
F180
ENDCHAR

STARTCHAR O
ENCODING 79
SWIDTH 780 0
DWIDTH 11 0
BBX 10 11 0 0
BITMAP
1E00
7F80
E1C0
C0C0
C0C0
C0C0
C0C0
C0C0
E1C0
7F80
1E00
ENDCHAR

STARTCHAR P
ENCODING 80
SWIDTH 600 0
DWIDTH 9 0
BBX 9 11 0 0
BITMAP
FE00
FF00
6380
6180
6380
7F00
7E00
6000
6000
F000
F000
ENDCHAR

STARTCHAR Q
ENCODING 81
SWIDTH 860 0
DWIDTH 12 0
BBX 12 11 0 0
BITMAP
1E00
7F80
E1C0
C0C0
C0C0
C0C0
DEC0
FFC0
E3D0
7FF0
1E70
ENDCHAR

STARTCHAR R
ENCODING 82
SWIDTH 640 0
DWIDTH 10 0
BBX 9 11 0 0
BITMAP
FE00
FF00
6380
6180
6380
7F00
7C00
6E00
6700
F380
F380
ENDCHAR

STARTCHAR S
ENCODING 83
SWIDTH 520 0
DWIDTH 8 0
BBX 7 11 0 0
BITMAP
76
FE
C6
C0
F0
7C
1E
06
C6
FE
DC
ENDCHAR

STARTCHAR T
ENCODING 84
SWIDTH 600 0
DWIDTH 9 0
BBX 8 11 0 0
BITMAP
FF
FF
DB
18
18
18
18
18
18
3C
3C
ENDCHAR

STARTCHAR U
ENCODING 85
SWIDTH 700 0
DWIDTH 10 0
BBX 10 11 0 0
BITMAP
F3C0
F3C0
6180
6180
6180
6180
6180
6180
7380
3F00
1E00
ENDCHAR

STARTCHAR V
ENCODING 86
SWIDTH 740 0
DWIDTH 10 0
BBX 9 11 0 0
BITMAP
E380
E380
6300
6300
7700
3600
3600
1E00
1C00
1C00
0800
ENDCHAR

STARTCHAR W
ENCODING 87
SWIDTH 1020 0
DWIDTH 15 0
BBX 14 11 0 0
BITMAP
F33C
F33C
6798
6798
6498
3CF0
3CF0
3CF0
1860
1860
1860
ENDCHAR

STARTCHAR X
ENCODING 88
SWIDTH 740 0
DWIDTH 10 0
BBX 9 11 0 0
BITMAP
E380
E380
7700
3600
1C00
1C00
3E00
3600
7700
E380
E380
ENDCHAR

STARTCHAR Y
ENCODING 89
SWIDTH 680 0
DWIDTH 9 0
BBX 8 11 0 0
BITMAP
E7
E7
66
66
3C
3C
18
18
18
3C
3C
ENDCHAR

STARTCHAR Z
ENCODING 90
SWIDTH 560 0
DWIDTH 8 0
BBX 7 11 0 0
BITMAP
FE
FE
C6
0C
1C
18
30
70
66
FE
FE
ENDCHAR

STARTCHAR bracketleft
ENCODING 91
SWIDTH 380 0
DWIDTH 6 0
BBX 4 13 1 -2
BITMAP
F0
F0
C0
C0
C0
C0
C0
C0
C0
C0
C0
F0
F0
ENDCHAR

STARTCHAR backslash
ENCODING 92
SWIDTH 620 0
DWIDTH 9 0
BBX 7 11 0 0
BITMAP
C0
C0
60
60
30
30
18
18
0C
0C
06
ENDCHAR

STARTCHAR bracketright
ENCODING 93
SWIDTH 380 0
DWIDTH 6 0
BBX 4 13 0 -2
BITMAP
F0
F0
30
30
30
30
30
30
30
30
30
F0
F0
ENDCHAR

STARTCHAR asciicircum
ENCODING 94
SWIDTH 660 0
DWIDTH 10 0
BBX 8 8 1 3
BITMAP
18
18
3C
24
66
66
C3
C3
ENDCHAR

STARTCHAR underscore
ENCODING 95
SWIDTH 500 0
DWIDTH 8 0
BBX 8 1 0 -2
BITMAP
FF
ENDCHAR

STARTCHAR quoteleft
ENCODING 96
SWIDTH 200 0
DWIDTH 3 0
BBX 2 4 0 7
BITMAP
40
80
C0
C0
ENDCHAR

STARTCHAR a
ENCODING 97
SWIDTH 660 0
DWIDTH 10 0
BBX 9 8 0 0
BITMAP
3B80
7F80
C300
C300
C300
C300
7F80
3B80
ENDCHAR

STARTCHAR b
ENCODING 98
SWIDTH 660 0
DWIDTH 10 0
BBX 9 11 0 0
BITMAP
E000
E000
6000
6E00
7F00
6180
6180
6180
6180
FF00
EE00
ENDCHAR

STARTCHAR c
ENCODING 99
SWIDTH 580 0
DWIDTH 8 0
BBX 7 8 0 0
BITMAP
36
7E
C6
C0
C0
C6
7E
3C
ENDCHAR

STARTCHAR d
ENCODING 100
SWIDTH 660 0
DWIDTH 9 0
BBX 9 11 0 0
BITMAP
0700
0700
0300
3B00
7F00
C300
C300
C300
C300
7F80
3B80
ENDCHAR

STARTCHAR e
ENCODING 101
SWIDTH 580 0
DWIDTH 9 0
BBX 8 8 0 0
BITMAP
3C
7E
C3
FF
FF
C0
7F
3C
ENDCHAR

STARTCHAR f
ENCODING 102
SWIDTH 320 0
DWIDTH 5 0
BBX 4 11 0 0
BITMAP
30
70
60
F0
F0
60
60
60
60
F0
F0
ENDCHAR

STARTCHAR g
ENCODING 103
SWIDTH 660 0
DWIDTH 10 0
BBX 9 11 0 -3
BITMAP
3B80
7F80
C300
C300
C300
C300
7F00
3B00
C300
FE00
7C00
ENDCHAR

STARTCHAR h
ENCODING 104
SWIDTH 640 0
DWIDTH 9 0
BBX 9 11 0 0
BITMAP
E000
E000
6000
6E00
7F00
6300
6300
6300
6300
F780
F780
ENDCHAR

STARTCHAR i
ENCODING 105
SWIDTH 300 0
DWIDTH 4 0
BBX 4 11 0 0
BITMAP
60
60
00
E0
E0
60
60
60
60
F0
F0
ENDCHAR

STARTCHAR j
ENCODING 106
SWIDTH 280 0
DWIDTH 4 0
BBX 4 14 -1 -3
BITMAP
30
30
00
70
70
30
30
30
30
30
30
30
F0
E0
ENDCHAR

STARTCHAR k
ENCODING 107
SWIDTH 600 0
DWIDTH 9 0
BBX 8 11 0 0
BITMAP
E0
E0
60
67
6F
7C
78
7C
6E
E7
E7
ENDCHAR

STARTCHAR l
ENCODING 108
SWIDTH 300 0
DWIDTH 4 0
BBX 4 11 0 0
BITMAP
E0
E0
60
60
60
60
60
60
60
F0
F0
ENDCHAR

STARTCHAR m
ENCODING 109
SWIDTH 980 0
DWIDTH 14 0
BBX 14 8 0 0
BITMAP
EEF0
FFF8
6318
6318
6318
6318
F7BC
F7BC
ENDCHAR

STARTCHAR n
ENCODING 110
SWIDTH 640 0
DWIDTH 9 0
BBX 9 8 0 0
BITMAP
EE00
FF00
6300
6300
6300
6300
F780
F780
ENDCHAR

STARTCHAR o
ENCODING 111
SWIDTH 580 0
DWIDTH 9 0
BBX 8 8 0 0
BITMAP
3C
7E
C3
C3
C3
C3
7E
3C
ENDCHAR

STARTCHAR p
ENCODING 112
SWIDTH 660 0
DWIDTH 10 0
BBX 9 11 0 -3
BITMAP
EE00
FF00
6180
6180
6180
6180
7F00
6E00
6000
F000
F000
ENDCHAR

STARTCHAR q
ENCODING 113
SWIDTH 660 0
DWIDTH 10 0
BBX 9 11 0 -3
BITMAP
3B80
7F80
C300
C300
C300
C300
7F00
3B00
0300
0780
0780
ENDCHAR

STARTCHAR r
ENCODING 114
SWIDTH 380 0
DWIDTH 6 0
BBX 5 8 0 0
BITMAP
D8
F8
60
60
60
60
F0
F0
ENDCHAR

STARTCHAR s
ENCODING 115
SWIDTH 460 0
DWIDTH 6 0
BBX 5 8 0 0
BITMAP
78
D8
C0
F0
78
18
D8
F0
ENDCHAR

STARTCHAR t
ENCODING 116
SWIDTH 340 0
DWIDTH 5 0
BBX 4 11 0 0
BITMAP
60
60
60
F0
F0
60
60
60
60
70
70
ENDCHAR

STARTCHAR u
ENCODING 117
SWIDTH 640 0
DWIDTH 9 0
BBX 9 8 0 0
BITMAP
E700
E700
6300
6300
6300
6300
7F80
3B80
ENDCHAR

STARTCHAR v
ENCODING 118
SWIDTH 600 0
DWIDTH 8 0
BBX 9 8 -1 0
BITMAP
F780
F780
6300
3600
3600
1C00
1C00
0800
ENDCHAR

STARTCHAR w
ENCODING 119
SWIDTH 880 0
DWIDTH 12 0
BBX 11 8 0 0
BITMAP
E4E0
EEE0
6EC0
6EC0
7BC0
3B80
3180
3180
ENDCHAR

STARTCHAR x
ENCODING 120
SWIDTH 620 0
DWIDTH 8 0
BBX 7 8 0 0
BITMAP
C6
EE
7C
38
38
6C
EE
C6
ENDCHAR

STARTCHAR y
ENCODING 121
SWIDTH 600 0
DWIDTH 9 0
BBX 8 11 0 -3
BITMAP
E7
E7
66
66
3C
3C
18
18
30
78
78
ENDCHAR

STARTCHAR z
ENCODING 122
SWIDTH 460 0
DWIDTH 7 0
BBX 6 8 0 0
BITMAP
FC
FC
CC
18
30
6C
FC
FC
ENDCHAR

STARTCHAR braceleft
ENCODING 123
SWIDTH 320 0
DWIDTH 5 0
BBX 4 13 0 -2
BITMAP
30
60
60
60
60
60
C0
60
60
60
60
60
30
ENDCHAR

STARTCHAR bar
ENCODING 124
SWIDTH 660 0
DWIDTH 10 0
BBX 2 11 4 0
BITMAP
C0
C0
C0
C0
C0
C0
C0
C0
C0
C0
C0
ENDCHAR

STARTCHAR braceright
ENCODING 125
SWIDTH 320 0
DWIDTH 5 0
BBX 4 13 0 -2
BITMAP
C0
60
60
60
60
60
30
60
60
60
60
60
C0
ENDCHAR

STARTCHAR asciitilde
ENCODING 126
SWIDTH 660 0
DWIDTH 10 0
BBX 9 3 0 3
BITMAP
3180
7B00
CE00
ENDCHAR

STARTCHAR space
ENCODING 160
SWIDTH 300 0
DWIDTH 3 0
BBX 1 1 0 0
BITMAP
00
ENDCHAR

STARTCHAR exclamdown
ENCODING 161
SWIDTH 200 0
DWIDTH 4 0
BBX 2 11 1 -3
BITMAP
C0
C0
00
C0
C0
C0
C0
C0
C0
C0
C0
ENDCHAR

STARTCHAR cent
ENCODING 162
SWIDTH 580 0
DWIDTH 8 0
BBX 7 11 0 0
BITMAP
30
30
7C
FE
C6
C0
C6
FE
7C
30
30
ENDCHAR

STARTCHAR sterling
ENCODING 163
SWIDTH 680 0
DWIDTH 10 0
BBX 7 11 1 0
BITMAP
78
FC
CC
C0
60
F8
F8
60
66
FE
FC
ENDCHAR

STARTCHAR currency
ENCODING 164
SWIDTH 580 0
DWIDTH 8 0
BBX 7 7 0 2
BITMAP
C6
FE
6C
44
6C
FE
C6
ENDCHAR

STARTCHAR yen
ENCODING 165
SWIDTH 720 0
DWIDTH 10 0
BBX 8 11 1 0
BITMAP
E7
E7
66
64
3C
FF
18
FF
18
3C
3C
ENDCHAR

STARTCHAR brokenbar
ENCODING 166
SWIDTH 660 0
DWIDTH 10 0
BBX 2 11 4 0
BITMAP
C0
C0
C0
C0
00
00
00
C0
C0
C0
C0
ENDCHAR

STARTCHAR section
ENCODING 167
SWIDTH 460 0
DWIDTH 8 0
BBX 6 13 1 -2
BITMAP
78
FC
C4
F0
78
DC
C4
F4
78
1C
C4
FC
78
ENDCHAR

STARTCHAR dieresis
ENCODING 168
SWIDTH 460 0
DWIDTH 7 0
BBX 5 2 1 9
BITMAP
D8
D8
ENDCHAR

STARTCHAR copyright
ENCODING 169
SWIDTH 820 0
DWIDTH 13 0
BBX 11 11 1 0
BITMAP
1F00
60C0
4E40
9120
9020
9020
9020
9120
4E40
60C0
1F00
ENDCHAR

STARTCHAR ordfeminine
ENCODING 170
SWIDTH 420 0
DWIDTH 6 0
BBX 5 6 0 5
BITMAP
78
90
90
78
00
F8
ENDCHAR

STARTCHAR guillemotleft
ENCODING 171
SWIDTH 360 0
DWIDTH 6 0
BBX 5 5 0 2
BITMAP
48
D8
90
D8
48
ENDCHAR

STARTCHAR logicalnot
ENCODING 172
SWIDTH 660 0
DWIDTH 10 0
BBX 8 5 1 1
BITMAP
FF
FF
03
03
03
ENDCHAR

STARTCHAR hyphen
ENCODING 173
SWIDTH 320 0
DWIDTH 5 0
BBX 4 2 0 2
BITMAP
F0
F0
ENDCHAR

STARTCHAR registered
ENCODING 174
SWIDTH 820 0
DWIDTH 13 0
BBX 11 11 1 0
BITMAP
1F00
60C0
5E40
9120
9120
9F20
9220
9120
5140
60C0
1F00
ENDCHAR

STARTCHAR macron
ENCODING 175
SWIDTH 520 0
DWIDTH 8 0
BBX 5 1 1 9
BITMAP
F8
ENDCHAR

STARTCHAR degree
ENCODING 176
SWIDTH 400 0
DWIDTH 6 0
BBX 4 4 0 7
BITMAP
60
90
90
60
ENDCHAR

STARTCHAR plusminus
ENCODING 177
SWIDTH 660 0
DWIDTH 10 0
BBX 8 9 1 0
BITMAP
18
18
FF
FF
18
18
00
FF
FF
ENDCHAR

STARTCHAR twosuperior
ENCODING 178
SWIDTH 348 0
DWIDTH 5 0
BBX 5 6 0 5
BITMAP
70
D8
18
30
68
F8
ENDCHAR

STARTCHAR threesuperior
ENCODING 179
SWIDTH 348 0
DWIDTH 5 0
BBX 5 6 0 5
BITMAP
70
D8
30
18
D8
70
ENDCHAR

STARTCHAR acute
ENCODING 180
SWIDTH 460 0
DWIDTH 7 0
BBX 4 3 1 9
BITMAP
30
60
C0
ENDCHAR

STARTCHAR mu
ENCODING 181
SWIDTH 640 0
DWIDTH 9 0
BBX 9 11 0 -3
BITMAP
E700
E700
6300
6300
6300
6300
7F80
7B80
6000
6000
6000
ENDCHAR

STARTCHAR paragraph
ENCODING 182
SWIDTH 540 0
DWIDTH 10 0
BBX 8 13 1 -2
BITMAP
7F
FF
F2
F2
72
12
12
12
12
12
12
12
12
ENDCHAR

STARTCHAR periodcentered
ENCODING 183
SWIDTH 300 0
DWIDTH 4 0
BBX 2 2 1 3
BITMAP
C0
C0
ENDCHAR

STARTCHAR cedilla
ENCODING 184
SWIDTH 360 0
DWIDTH 5 0
BBX 5 3 0 -3
BITMAP
30
98
70
ENDCHAR

STARTCHAR onesuperior
ENCODING 185
SWIDTH 348 0
DWIDTH 5 0
BBX 4 6 0 5
BITMAP
E0
60
60
60
60
F0
ENDCHAR

STARTCHAR ordmasculine
ENCODING 186
SWIDTH 360 0
DWIDTH 5 0
BBX 4 6 0 5
BITMAP
60
90
90
60
00
F0
ENDCHAR

STARTCHAR guillemotright
ENCODING 187
SWIDTH 360 0
DWIDTH 6 0
BBX 5 5 0 2
BITMAP
90
D8
48
D8
90
ENDCHAR

STARTCHAR onequarter
ENCODING 188
SWIDTH 870 0
DWIDTH 12 0
BBX 11 11 0 0
BITMAP
E080
6180
6100
6300
6200
F640
04C0
0DC0
0B40
1BE0
1040
ENDCHAR

STARTCHAR onehalf
ENCODING 189
SWIDTH 870 0
DWIDTH 12 0
BBX 12 11 0 0
BITMAP
E080
6180
6100
6300
6200
F6E0
05B0
0C30
0860
18C0
11F0
ENDCHAR

STARTCHAR threequarters
ENCODING 190
SWIDTH 870 0
DWIDTH 12 0
BBX 11 11 0 0
BITMAP
7080
D980
3100
1B00
DA00
7640
04C0
0DC0
0B40
1BE0
1040
ENDCHAR

STARTCHAR questiondown
ENCODING 191
SWIDTH 540 0
DWIDTH 9 0
BBX 7 11 1 -3
BITMAP
18
18
00
18
18
78
E0
C0
C6
FE
7C
ENDCHAR

STARTCHAR Agrave
ENCODING 192
SWIDTH 780 0
DWIDTH 11 0
BBX 10 15 0 0
BITMAP
3000
1800
0C00
0000
1C00
1C00
0E00
1E00
1A00
3300
3F00
7F80
6180
F3C0
F3C0
ENDCHAR

STARTCHAR Aacute
ENCODING 193
SWIDTH 780 0
DWIDTH 11 0
BBX 10 15 0 0
BITMAP
0300
0600
0C00
0000
1C00
1C00
0E00
1E00
1A00
3300
3F00
7F80
6180
F3C0
F3C0
ENDCHAR

STARTCHAR Acircumflex
ENCODING 194
SWIDTH 780 0
DWIDTH 11 0
BBX 10 15 0 0
BITMAP
0800
1C00
3600
0000
1C00
1C00
0E00
1E00
1A00
3300
3F00
7F80
6180
F3C0
F3C0
ENDCHAR

STARTCHAR Atilde
ENCODING 195
SWIDTH 780 0
DWIDTH 11 0
BBX 10 14 0 0
BITMAP
1B00
3600
0000
1C00
1C00
0E00
1E00
1A00
3300
3F00
7F80
6180
F3C0
F3C0
ENDCHAR

STARTCHAR Adieresis
ENCODING 196
SWIDTH 780 0
DWIDTH 11 0
BBX 10 14 0 0
BITMAP
3300
3300
0000
1C00
1C00
0E00
1E00
1A00
3300
3F00
7F80
6180
F3C0
F3C0
ENDCHAR

STARTCHAR Aring
ENCODING 197
SWIDTH 780 0
DWIDTH 11 0
BBX 10 15 0 0
BITMAP
0C00
1200
1200
0C00
1C00
1C00
0E00
1E00
1A00
3300
3F00
7F80
6180
F3C0
F3C0
ENDCHAR

STARTCHAR AE
ENCODING 198
SWIDTH 980 0
DWIDTH 14 0
BBX 13 11 0 0
BITMAP
0FF8
0FF8
0798
0D80
0DF0
19F0
3F80
3F80
6198
FBF8
FBF8
ENDCHAR

STARTCHAR Ccedilla
ENCODING 199
SWIDTH 760 0
DWIDTH 10 0
BBX 9 14 0 -3
BITMAP
1D80
7F80
E180
C000
C000
C000
C000
C000
E180
7F80
1E00
0C00
2600
1C00
ENDCHAR

STARTCHAR Egrave
ENCODING 200
SWIDTH 580 0
DWIDTH 9 0
BBX 8 15 0 0
BITMAP
30
18
0C
00
FF
FF
63
60
7C
7C
60
60
63
FF
FF
ENDCHAR

STARTCHAR Eacute
ENCODING 201
SWIDTH 580 0
DWIDTH 9 0
BBX 8 15 0 0
BITMAP
06
0C
18
00
FF
FF
63
60
7C
7C
60
60
63
FF
FF
ENDCHAR

STARTCHAR Ecircumflex
ENCODING 202
SWIDTH 580 0
DWIDTH 9 0
BBX 8 15 0 0
BITMAP
08
1C
36
00
FF
FF
63
60
7C
7C
60
60
63
FF
FF
ENDCHAR

STARTCHAR Edieresis
ENCODING 203
SWIDTH 580 0
DWIDTH 9 0
BBX 8 14 0 0
BITMAP
36
36
00
FF
FF
63
60
7C
7C
60
60
63
FF
FF
ENDCHAR

STARTCHAR Igrave
ENCODING 204
SWIDTH 340 0
DWIDTH 5 0
BBX 4 15 0 0
BITMAP
C0
60
30
00
F0
F0
60
60
60
60
60
60
60
F0
F0
ENDCHAR

STARTCHAR Iacute
ENCODING 205
SWIDTH 340 0
DWIDTH 5 0
BBX 5 15 0 0
BITMAP
18
30
60
00
F0
F0
60
60
60
60
60
60
60
F0
F0
ENDCHAR

STARTCHAR Icircumflex
ENCODING 206
SWIDTH 340 0
DWIDTH 5 0
BBX 5 15 0 0
BITMAP
20
70
D8
00
F0
F0
60
60
60
60
60
60
60
F0
F0
ENDCHAR

STARTCHAR Idieresis
ENCODING 207
SWIDTH 340 0
DWIDTH 5 0
BBX 5 14 0 0
BITMAP
D8
D8
00
F0
F0
60
60
60
60
60
60
60
F0
F0
ENDCHAR

STARTCHAR Eth
ENCODING 208
SWIDTH 740 0
DWIDTH 11 0
BBX 10 11 0 0
BITMAP
FE00
FF80
6180
60C0
60C0
F8C0
60C0
60C0
6180
FF80
FE00
ENDCHAR

STARTCHAR Ntilde
ENCODING 209
SWIDTH 800 0
DWIDTH 11 0
BBX 10 14 0 0
BITMAP
1B00
3600
0000
F3C0
F3C0
7980
7980
6D80
6D80
6780
6780
6380
F380
F180
ENDCHAR

STARTCHAR Ograve
ENCODING 210
SWIDTH 780 0
DWIDTH 11 0
BBX 10 15 0 0
BITMAP
1800
0C00
0600
0000
1E00
7F80
E1C0
C0C0
C0C0
C0C0
C0C0
C0C0
E1C0
7F80
1E00
ENDCHAR

STARTCHAR Oacute
ENCODING 211
SWIDTH 780 0
DWIDTH 11 0
BBX 10 15 0 0
BITMAP
0300
0600
0C00
0000
1E00
7F80
E1C0
C0C0
C0C0
C0C0
C0C0
C0C0
E1C0
7F80
1E00
ENDCHAR

STARTCHAR Ocircumflex
ENCODING 212
SWIDTH 780 0
DWIDTH 11 0
BBX 10 15 0 0
BITMAP
0400
0E00
1B00
0000
1E00
7F80
E1C0
C0C0
C0C0
C0C0
C0C0
C0C0
E1C0
7F80
1E00
ENDCHAR

STARTCHAR Otilde
ENCODING 213
SWIDTH 780 0
DWIDTH 11 0
BBX 10 14 0 0
BITMAP
1B00
3600
0000
1E00
7F80
E1C0
C0C0
C0C0
C0C0
C0C0
C0C0
E1C0
7F80
1E00
ENDCHAR

STARTCHAR Odieresis
ENCODING 214
SWIDTH 780 0
DWIDTH 11 0
BBX 10 14 0 0
BITMAP
3300
3300
0000
1E00
7F80
E1C0
C0C0
C0C0
C0C0
C0C0
C0C0
E1C0
7F80
1E00
ENDCHAR

STARTCHAR multiply
ENCODING 215
SWIDTH 660 0
DWIDTH 10 0
BBX 7 8 1 0
BITMAP
82
C6
6C
38
38
6C
C6
82
ENDCHAR

STARTCHAR Oslash
ENCODING 216
SWIDTH 780 0
DWIDTH 11 0
BBX 12 11 -1 0
BITMAP
0F30
3FE0
70E0
61E0
6360
6660
6C60
7860
70E0
7FC0
CF00
ENDCHAR

STARTCHAR Ugrave
ENCODING 217
SWIDTH 700 0
DWIDTH 10 0
BBX 10 15 0 0
BITMAP
1800
0C00
0600
0000
F3C0
F3C0
6180
6180
6180
6180
6180
6180
7380
3F00
1E00
ENDCHAR

STARTCHAR Uacute
ENCODING 218
SWIDTH 700 0
DWIDTH 10 0
BBX 10 15 0 0
BITMAP
0180
0300
0600
0000
F3C0
F3C0
6180
6180
6180
6180
6180
6180
7380
3F00
1E00
ENDCHAR

STARTCHAR Ucircumflex
ENCODING 219
SWIDTH 700 0
DWIDTH 10 0
BBX 10 15 0 0
BITMAP
0400
0E00
1B00
0000
F3C0
F3C0
6180
6180
6180
6180
6180
6180
7380
3F00
1E00
ENDCHAR

STARTCHAR Udieresis
ENCODING 220
SWIDTH 700 0
DWIDTH 10 0
BBX 10 14 0 0
BITMAP
3300
3300
0000
F3C0
F3C0
6180
6180
6180
6180
6180
6180
7380
3F00
1E00
ENDCHAR

STARTCHAR Yacute
ENCODING 221
SWIDTH 680 0
DWIDTH 9 0
BBX 8 15 0 0
BITMAP
03
06
0C
00
E7
E7
66
66
3C
3C
18
18
18
3C
3C
ENDCHAR

STARTCHAR Thorn
ENCODING 222
SWIDTH 600 0
DWIDTH 9 0
BBX 9 11 0 0
BITMAP
F000
E000
7E00
7F00
6380
6180
6380
7F00
7E00
E000
F000
ENDCHAR

STARTCHAR germandbls
ENCODING 223
SWIDTH 600 0
DWIDTH 9 0
BBX 8 11 0 0
BITMAP
3C
7E
66
66
6C
6E
67
63
67
FE
EC
ENDCHAR

STARTCHAR agrave
ENCODING 224
SWIDTH 660 0
DWIDTH 10 0
BBX 9 12 0 0
BITMAP
3000
1800
0C00
0000
3B80
7F80
C300
C300
C300
C300
7F80
3B80
ENDCHAR

STARTCHAR aacute
ENCODING 225
SWIDTH 660 0
DWIDTH 10 0
BBX 9 12 0 0
BITMAP
0C00
1800
3000
0000
3B80
7F80
C300
C300
C300
C300
7F80
3B80
ENDCHAR

STARTCHAR acircumflex
ENCODING 226
SWIDTH 660 0
DWIDTH 10 0
BBX 9 12 0 0
BITMAP
0800
1C00
3600
0000
3B80
7F80
C300
C300
C300
C300
7F80
3B80
ENDCHAR

STARTCHAR atilde
ENCODING 227
SWIDTH 660 0
DWIDTH 10 0
BBX 9 11 0 0
BITMAP
3600
6C00
0000
3B80
7F80
C300
C300
C300
C300
7F80
3B80
ENDCHAR

STARTCHAR adieresis
ENCODING 228
SWIDTH 660 0
DWIDTH 10 0
BBX 9 11 0 0
BITMAP
3600
3600
0000
3B80
7F80
C300
C300
C300
C300
7F80
3B80
ENDCHAR

STARTCHAR aring
ENCODING 229
SWIDTH 660 0
DWIDTH 10 0
BBX 9 12 0 0
BITMAP
1800
2400
2400
1800
3B80
7F80
C300
C300
C300
C300
7F80
3B80
ENDCHAR

STARTCHAR ae
ENCODING 230
SWIDTH 1040 0
DWIDTH 15 0
BBX 14 8 0 0
BITMAP
3B70
7FF8
C30C
C3FC
C3FC
C300
7FFC
3B70
ENDCHAR

STARTCHAR ccedilla
ENCODING 231
SWIDTH 580 0
DWIDTH 8 0
BBX 7 11 0 -3
BITMAP
36
7E
C6
C0
C0
C6
7E
3C
18
4C
38
ENDCHAR

STARTCHAR egrave
ENCODING 232
SWIDTH 580 0
DWIDTH 9 0
BBX 8 12 0 0
BITMAP
30
18
0C
00
3C
7E
C3
FF
FF
C0
7F
3C
ENDCHAR

STARTCHAR eacute
ENCODING 233
SWIDTH 580 0
DWIDTH 9 0
BBX 8 12 0 0
BITMAP
0C
18
30
00
3C
7E
C3
FF
FF
C0
7F
3C
ENDCHAR

STARTCHAR ecircumflex
ENCODING 234
SWIDTH 580 0
DWIDTH 9 0
BBX 8 12 0 0
BITMAP
10
38
6C
00
3C
7E
C3
FF
FF
C0
7F
3C
ENDCHAR

STARTCHAR edieresis
ENCODING 235
SWIDTH 580 0
DWIDTH 9 0
BBX 8 11 0 0
BITMAP
66
66
00
3C
7E
C3
FF
FF
C0
7F
3C
ENDCHAR

STARTCHAR igrave
ENCODING 236
SWIDTH 300 0
DWIDTH 4 0
BBX 4 12 0 0
BITMAP
C0
60
30
00
E0
E0
60
60
60
60
F0
F0
ENDCHAR

STARTCHAR iacute
ENCODING 237
SWIDTH 300 0
DWIDTH 4 0
BBX 4 12 0 0
BITMAP
30
60
C0
00
E0
E0
60
60
60
60
F0
F0
ENDCHAR

STARTCHAR icircumflex
ENCODING 238
SWIDTH 300 0
DWIDTH 4 0
BBX 5 12 -1 0
BITMAP
20
70
D8
00
70
70
30
30
30
30
78
78
ENDCHAR

STARTCHAR idieresis
ENCODING 239
SWIDTH 300 0
DWIDTH 4 0
BBX 5 11 -1 0
BITMAP
D8
D8
00
70
70
30
30
30
30
78
78
ENDCHAR

STARTCHAR eth
ENCODING 240
SWIDTH 580 0
DWIDTH 9 0
BBX 8 11 0 0
BITMAP
73
3C
CC
3E
7E
C3
C3
C3
C3
7E
3C
ENDCHAR

STARTCHAR ntilde
ENCODING 241
SWIDTH 640 0
DWIDTH 9 0
BBX 9 11 0 0
BITMAP
3600
6C00
0000
EE00
FF00
6300
6300
6300
6300
F780
F780
ENDCHAR

STARTCHAR ograve
ENCODING 242
SWIDTH 580 0
DWIDTH 9 0
BBX 8 12 0 0
BITMAP
60
30
18
00
3C
7E
C3
C3
C3
C3
7E
3C
ENDCHAR

STARTCHAR oacute
ENCODING 243
SWIDTH 580 0
DWIDTH 9 0
BBX 8 12 0 0
BITMAP
06
0C
18
00
3C
7E
C3
C3
C3
C3
7E
3C
ENDCHAR

STARTCHAR ocircumflex
ENCODING 244
SWIDTH 580 0
DWIDTH 9 0
BBX 8 12 0 0
BITMAP
08
1C
36
00
3C
7E
C3
C3
C3
C3
7E
3C
ENDCHAR

STARTCHAR otilde
ENCODING 245
SWIDTH 580 0
DWIDTH 9 0
BBX 8 11 0 0
BITMAP
36
6C
00
3C
7E
C3
C3
C3
C3
7E
3C
ENDCHAR

STARTCHAR odieresis
ENCODING 246
SWIDTH 580 0
DWIDTH 9 0
BBX 8 11 0 0
BITMAP
66
66
00
3C
7E
C3
C3
C3
C3
7E
3C
ENDCHAR

STARTCHAR divide
ENCODING 247
SWIDTH 660 0
DWIDTH 10 0
BBX 8 8 1 0
BITMAP
18
18
00
FF
FF
00
18
18
ENDCHAR

STARTCHAR oslash
ENCODING 248
SWIDTH 600 0
DWIDTH 9 0
BBX 8 10 0 -1
BITMAP
03
3F
7E
CB
DB
DB
D3
7E
FC
C0
ENDCHAR

STARTCHAR ugrave
ENCODING 249
SWIDTH 640 0
DWIDTH 9 0
BBX 9 12 0 0
BITMAP
3000
1800
0C00
0000
E700
E700
6300
6300
6300
6300
7F80
3B80
ENDCHAR

STARTCHAR uacute
ENCODING 250
SWIDTH 640 0
DWIDTH 9 0
BBX 9 12 0 0
BITMAP
0600
0C00
1800
0000
E700
E700
6300
6300
6300
6300
7F80
3B80
ENDCHAR

STARTCHAR ucircumflex
ENCODING 251
SWIDTH 640 0
DWIDTH 9 0
BBX 9 12 0 0
BITMAP
0800
1C00
3600
0000
E700
E700
6300
6300
6300
6300
7F80
3B80
ENDCHAR

STARTCHAR udieresis
ENCODING 252
SWIDTH 640 0
DWIDTH 9 0
BBX 9 11 0 0
BITMAP
3600
3600
0000
E700
E700
6300
6300
6300
6300
7F80
3B80
ENDCHAR

STARTCHAR yacute
ENCODING 253
SWIDTH 600 0
DWIDTH 9 0
BBX 8 15 0 -3
BITMAP
06
0C
18
00
E7
E7
66
66
3C
3C
18
18
30
78
78
ENDCHAR

STARTCHAR thorn
ENCODING 254
SWIDTH 660 0
DWIDTH 10 0
BBX 9 14 0 -3
BITMAP
E000
E000
6000
6E00
7F00
6180
6180
6180
6180
7F00
6E00
6000
F000
F000
ENDCHAR

STARTCHAR ydieresis
ENCODING 255
SWIDTH 600 0
DWIDTH 9 0
BBX 8 14 0 -3
BITMAP
6C
6C
00
E7
E7
66
66
3C
3C
18
18
30
78
78
ENDCHAR
ENDFONT
